<?xml version="1.0" encoding="utf-8"?>
<svg version="1.1" xmlns="http://www.w3.org/2000/svg" xmlns:xlink="http://www.w3.org/1999/xlink" x="0px" y="0px"
	 viewBox="0 0 100 100" enable-background="new 0 0 100 100" xml:space="preserve">
<circle cx="50" cy="50" r="50"/>
<path fill="#FFF000" d="M70,25v5h-8v-1c0-2.2-1.8-4-4-4c-2.2,0-4,1.8-4,4v1h-2v-1c0-2.2-1.8-4-4-4c-2.2,0-4,1.8-4,4v1h-2v-1
	c0-2.2-1.8-4-4-4s-4,1.8-4,4v1h-4v-5h-4v48h4v-5h18v1c0,2.2,1.8,4,4,4c2.2,0,4-1.8,4-4v-1h2v1c0,2.2,1.8,4,4,4c2.2,0,4-1.8,4-4v-1h4
	v5h4V25H70z M70,64h-4v-1c0-2.2-1.8-4-4-4c-2.2,0-4,1.8-4,4v1h-2v-1c0-2.2-1.8-4-4-4c-2.2,0-4,1.8-4,4v1H30V51h4v1c0,2.2,1.8,4,4,4
	c2.2,0,4-1.8,4-4v-1h16v1c0,2.2,1.8,4,4,4c2.2,0,4-1.8,4-4v-1h4V64z M70,47h-4v-1c0-2.2-1.8-4-4-4c-2.2,0-4,1.8-4,4v1H42v-1
	c0-2.2-1.8-4-4-4s-4,1.8-4,4v1h-4V34h4v1c0,2.2,1.8,4,4,4c2.2,0,4-1.8,4-4v-1h2v1c0,2.2,1.8,4,4,4c2.2,0,4-1.8,4-4v-1h2v1
	c0,2.2,1.8,4,4,4c2.2,0,4-1.8,4-4v-1h8V47z"/>
</svg>
